<?xml version="1.0" standalone="no"?>
<!DOCTYPE svg PUBLIC "-//W3C//DTD SVG 20010904//EN"
 "http://www.w3.org/TR/2001/REC-SVG-20010904/DTD/svg10.dtd">
<svg version="1.0" xmlns="http://www.w3.org/2000/svg"
 width="2000.000000pt" height="2000.000000pt" viewBox="0 0 2000.000000 2000.000000"
 preserveAspectRatio="xMidYMid meet">

<g transform="translate(0.000000,2000.000000) scale(0.100000,-0.100000)"
fill="#000000" stroke="none">
<path d="M7170 12897 c-75 -31 -122 -65 -203 -144 -270 -265 -512 -759 -609
-1245 -27 -137 -32 -397 -9 -488 42 -169 144 -266 331 -317 80 -21 318 -24
430 -4 179 32 412 125 643 258 43 25 80 44 82 42 4 -5 -226 -318 -337 -457
-116 -146 -124 -161 -103 -202 12 -23 22 -30 44 -30 39 0 52 13 177 180 126
168 399 449 534 550 126 93 198 125 286 125 77 0 79 -1 314 -127 58 -31 146
-69 195 -84 82 -25 105 -28 255 -28 162 -1 166 -1 224 28 32 16 79 49 105 74
l46 44 180 -5 c99 -3 270 -2 380 1 110 4 202 6 204 5 2 -2 -8 -40 -23 -85 -15
-46 -30 -106 -33 -135 -5 -46 -3 -54 21 -78 27 -26 30 -27 119 -23 109 4 186
35 279 111 32 26 62 47 67 47 5 0 12 -16 15 -36 9 -47 68 -111 114 -124 89
-24 196 4 280 75 18 15 35 25 38 22 3 -3 -2 -39 -11 -79 -36 -160 -125 -623
-125 -654 0 -36 22 -64 48 -64 27 0 62 29 62 52 0 50 194 804 216 840 3 5 13
-6 22 -24 15 -28 23 -33 59 -36 87 -6 185 78 224 195 18 54 21 81 17 166 -5
117 -13 138 -89 225 -78 90 -82 93 -104 90 -24 -4 -102 -153 -179 -343 -48
-117 -52 -122 -135 -203 -116 -113 -191 -162 -246 -162 -65 0 -84 22 -91 100
-6 59 -4 72 21 120 16 30 34 73 40 95 8 26 19 41 31 43 34 7 38 21 10 33 -26
12 -26 13 -20 85 6 66 5 73 -16 90 -12 11 -47 45 -77 76 -63 65 -104 82 -174
76 -96 -10 -181 -96 -270 -274 l-50 -101 -67 -7 c-87 -8 -561 -8 -630 1 l-53
6 8 31 c4 17 8 87 7 156 0 105 -4 134 -23 183 -69 175 -289 401 -531 545 -137
82 -128 62 -76 173 50 104 56 147 28 172 -45 41 -100 9 -207 -122 -27 -33 -56
-61 -62 -61 -7 0 -45 11 -85 24 -168 57 -307 78 -549 83 -143 3 -244 1 -276
-5 -100 -22 -162 -52 -216 -106 l-53 -52 18 90 c25 130 24 314 -2 399 -24 78
-84 150 -156 187 -72 36 -207 40 -284 7z m240 -102 c38 -19 86 -77 98 -117 19
-61 23 -144 12 -251 -25 -247 -131 -474 -307 -658 -35 -36 -63 -73 -63 -82 0
-50 114 16 221 129 64 67 98 118 150 222 l36 73 6 -61 c7 -67 39 -140 89 -203
71 -89 269 -237 451 -336 42 -23 77 -48 77 -54 -1 -7 -27 -45 -58 -84 -146
-185 -660 -477 -977 -554 -73 -18 -120 -22 -245 -23 -142 0 -162 2 -236 27
-174 58 -235 182 -221 452 20 374 222 915 462 1235 72 97 198 225 253 257 90
53 184 63 252 28z m1000 -549 c95 -18 248 -58 273 -72 14 -8 1 -31 -91 -156
-59 -80 -156 -213 -216 -297 -60 -83 -114 -151 -120 -151 -6 0 -49 21 -96 46
-206 110 -394 260 -451 358 -75 131 -3 244 186 290 45 11 432 -2 515 -18z
m680 -272 c195 -129 345 -283 411 -422 26 -54 32 -81 36 -151 2 -52 -2 -108
-10 -141 l-13 -55 -54 3 c-192 12 -638 124 -890 224 -41 17 -86 34 -98 39 -23
9 -21 12 56 97 119 131 207 243 300 384 l84 128 41 -22 c23 -11 85 -49 137
-84z m1680 -521 c35 -24 69 -64 75 -88 4 -11 -5 -45 -20 -76 l-25 -56 -108 -7
c-59 -4 -124 -9 -144 -13 -29 -4 -38 -2 -38 8 0 27 75 143 126 196 55 58 89
67 134 36z m-2250 -131 c203 -80 508 -165 728 -202 173 -29 174 -29 166 -41
-4 -6 -27 -21 -53 -32 -39 -18 -63 -21 -161 -20 -167 2 -238 23 -464 138 -168
86 -196 97 -256 102 -40 3 -89 1 -121 -7 -56 -13 -171 -66 -222 -102 -88 -63
5 52 126 156 l88 75 47 -18 c26 -11 81 -32 122 -49z m3092 16 c7 -14 13 -59
13 -113 0 -79 -3 -97 -29 -148 -42 -87 -110 -122 -149 -76 -23 27 -12 64 53
174 27 44 56 104 66 133 10 28 22 52 26 52 4 0 13 -10 20 -22z m-834 -213 c-4
-44 -11 -62 -34 -86 -47 -50 -145 -124 -199 -152 -57 -28 -139 -44 -149 -29
-3 6 11 61 31 123 l38 114 90 15 c50 9 113 26 140 37 45 19 73 30 84 32 2 1 1
-24 -1 -54z"/>
<path d="M11953 11588 c-72 -79 -133 -325 -133 -528 1 -172 28 -230 106 -230
54 0 104 40 129 102 14 35 141 177 149 166 1 -2 12 -17 24 -34 31 -45 80 -65
161 -65 76 0 134 19 196 67 l35 27 41 -46 c47 -54 83 -67 185 -67 80 0 247 39
304 71 19 10 48 24 63 30 47 19 31 43 -35 53 -48 7 -79 3 -180 -19 -144 -32
-215 -31 -252 4 -35 33 -37 56 -8 98 89 130 105 212 53 264 -28 28 -48 34
-101 29 -58 -5 -89 -70 -90 -188 0 -46 -5 -92 -11 -103 -5 -11 -37 -40 -69
-64 -67 -49 -121 -63 -174 -45 -36 12 -47 32 -60 111 -8 45 -37 73 -68 66 -14
-4 -47 -39 -81 -87 -32 -44 -63 -80 -69 -80 -5 0 -23 11 -40 25 -19 16 -42 25
-64 25 -35 0 -35 0 -29 38 15 88 37 177 60 238 47 124 21 210 -42 142z m-3
-629 c0 -5 -4 -9 -10 -9 -5 0 -10 7 -10 16 0 8 5 12 10 9 6 -3 10 -10 10 -16z"/>
</g>
</svg>
