<?xml version="1.0" standalone="no"?>
<!DOCTYPE svg PUBLIC "-//W3C//DTD SVG 20010904//EN"
 "http://www.w3.org/TR/2001/REC-SVG-20010904/DTD/svg10.dtd">
<svg version="1.0" xmlns="http://www.w3.org/2000/svg"
 width="1022.000000pt" height="361.000000pt" viewBox="0 0 1022.000000 361.000000"
 preserveAspectRatio="xMidYMid meet">
<metadata>
Created by potrace 1.16, written by Peter Selinger 2001-2019
</metadata>
<g transform="translate(0.000000,361.000000) scale(0.100000,-0.100000)"
fill="#000000" stroke="none">
<path d="M1870 3237 c-97 -41 -174 -104 -293 -240 -216 -248 -428 -712 -512
-1121 -49 -234 -42 -488 17 -612 51 -109 146 -180 299 -221 88 -24 329 -23
452 1 164 32 401 128 608 247 50 28 92 50 94 48 4 -5 -252 -353 -350 -474
-103 -129 -111 -145 -90 -185 12 -23 22 -30 44 -30 39 0 52 13 177 180 149
198 429 481 577 582 102 69 163 93 243 93 77 0 79 -1 314 -127 58 -31 146 -69
195 -84 82 -25 105 -28 255 -28 162 -1 166 -1 224 28 32 16 79 49 105 74 l46
44 180 -5 c99 -3 270 -2 380 2 110 4 202 6 204 4 2 -1 -8 -40 -24 -85 -15 -46
-29 -106 -32 -135 -5 -46 -3 -54 20 -77 23 -23 34 -26 94 -26 119 0 220 40
323 128 21 17 42 32 47 32 5 0 14 -20 22 -44 43 -147 239 -168 389 -41 18 15
36 25 39 21 3 -3 -4 -47 -15 -98 -12 -51 -33 -154 -48 -228 -14 -74 -36 -186
-50 -249 -13 -63 -24 -131 -24 -152 0 -40 20 -69 49 -69 40 0 52 24 81 160 15
74 64 267 109 427 45 161 81 295 81 298 0 15 17 1 32 -25 15 -26 23 -30 58
-30 89 0 183 84 221 197 18 54 21 81 17 166 -5 117 -14 140 -88 223 -28 30
-50 58 -50 62 0 14 -42 33 -61 27 -23 -8 -88 -133 -156 -299 -62 -154 -81
-183 -168 -262 -147 -132 -222 -168 -285 -134 -45 24 -52 138 -13 213 14 29
32 70 38 92 8 26 19 41 31 43 34 7 38 21 11 33 -26 12 -26 13 -20 84 5 67 4
74 -17 91 -12 11 -47 45 -77 76 -63 65 -104 82 -174 76 -95 -10 -184 -99 -270
-274 l-50 -101 -67 -7 c-88 -8 -576 -8 -636 0 -47 7 -47 7 -39 38 4 17 8 87 7
156 0 105 -4 134 -23 183 -70 178 -286 399 -533 547 -134 80 -126 60 -74 171
50 104 56 147 28 172 -45 41 -100 9 -204 -119 -28 -35 -57 -64 -65 -64 -7 0
-45 11 -85 24 -168 57 -307 78 -549 83 -143 3 -244 1 -276 -5 -100 -22 -162
-52 -217 -105 l-52 -52 18 90 c25 129 24 313 -2 398 -24 78 -84 150 -156 187
-72 36 -207 40 -284 7z m207 -92 c121 -36 167 -158 144 -380 -25 -243 -147
-500 -315 -665 -60 -59 -72 -90 -33 -90 46 0 182 115 259 219 23 29 60 92 83
138 l42 85 6 -59 c8 -74 28 -124 78 -190 74 -99 266 -245 462 -352 42 -23 77
-47 77 -52 0 -6 -24 -43 -54 -82 -86 -115 -320 -274 -614 -418 -265 -130 -475
-181 -686 -165 -180 14 -301 76 -347 180 -69 157 -41 482 70 816 127 379 291
673 489 873 81 83 136 121 205 142 56 18 74 18 134 0z m1033 -559 c95 -18 248
-58 273 -72 14 -8 -7 -41 -131 -211 -81 -111 -178 -245 -216 -297 -38 -53 -74
-96 -80 -96 -6 0 -49 21 -96 46 -216 115 -413 275 -457 369 -61 133 8 234 192
279 45 11 432 -2 515 -18z m695 -280 c186 -128 334 -282 396 -413 26 -55 32
-82 36 -152 2 -52 -2 -108 -10 -141 l-13 -55 -54 3 c-207 13 -723 148 -973
256 l-38 17 79 87 c119 131 207 243 300 385 l84 127 60 -32 c33 -17 93 -55
133 -82z m1665 -513 c35 -24 69 -64 75 -88 4 -11 -5 -45 -20 -76 l-25 -56
-108 -7 c-59 -4 -124 -10 -144 -13 -29 -4 -38 -2 -38 8 0 27 75 143 126 196
55 58 89 67 134 36z m-2230 -138 c217 -83 489 -158 706 -194 175 -30 176 -30
168 -42 -11 -19 -87 -47 -144 -54 -62 -7 -207 8 -290 31 -30 8 -141 58 -246
110 -211 106 -265 120 -375 94 -56 -13 -171 -66 -222 -102 -41 -29 -43 -16 -5
28 48 57 48 57 137 133 l82 70 52 -20 c29 -12 90 -36 137 -54z m3072 23 c7
-14 13 -59 13 -113 0 -79 -3 -97 -29 -148 -43 -88 -110 -122 -150 -75 -17 19
-17 26 -6 57 7 20 34 72 60 116 27 44 56 104 66 133 10 28 22 52 26 52 4 0 13
-10 20 -22z m-834 -213 c-4 -46 -10 -62 -39 -91 -49 -52 -136 -117 -194 -147
-57 -28 -139 -44 -149 -29 -3 6 11 61 31 123 l38 114 90 15 c50 9 117 28 150
43 33 14 64 26 69 27 5 0 6 -25 4 -55z"/>
<path d="M6647 1920 c-29 -34 -68 -132 -98 -245 -25 -98 -38 -347 -20 -411 18
-68 45 -94 96 -94 55 0 105 39 130 102 9 25 44 69 82 106 70 68 69 68 103 11
18 -31 75 -49 152 -49 79 0 130 18 193 66 l35 27 41 -47 c51 -58 93 -70 214
-63 95 6 257 47 286 73 9 9 30 19 45 23 19 5 29 14 29 27 0 15 -10 21 -56 27
-46 7 -80 4 -184 -18 -152 -33 -214 -31 -252 8 -35 34 -32 64 11 124 75 104
87 183 37 234 -28 28 -48 34 -101 29 -59 -5 -89 -70 -90 -192 0 -78 -3 -90
-25 -116 -34 -41 -112 -89 -157 -97 -21 -4 -52 -2 -72 5 -36 12 -47 31 -60
111 -8 45 -37 73 -68 66 -14 -4 -47 -39 -81 -87 -32 -44 -63 -80 -69 -80 -5 0
-23 11 -40 25 -19 16 -42 25 -64 25 -21 0 -34 5 -34 13 1 32 41 200 64 263 36
99 34 164 -4 164 -10 0 -29 -13 -43 -30z"/>
</g>
</svg>
